<?xml version="1.0" encoding="UTF-8" standalone="no"?>
<svg width="48px" height="24px" viewBox="0 0 48 24" version="1.1" xmlns="http://www.w3.org/2000/svg" xmlns:xlink="http://www.w3.org/1999/xlink" xmlns:sketch="http://www.bohemiancoding.com/sketch/ns">
    <!-- Generator: Sketch 3.0.3 (7891) - http://www.bohemiancoding.com/sketch -->
    <title>Icon Server</title>
    <desc>Created with Sketch.</desc>
    <defs></defs>
    <g id="Page-1" stroke="none" stroke-width="1" fill="none" fill-rule="evenodd" sketch:type="MSPage">
        <g id="Active" sketch:type="MSLayerGroup" transform="translate(27.000000, 1.000000)">
            <g id="Group" sketch:type="MSShapeGroup">
                <g>
                    <g id="Clipped" transform="translate(16.243902, 19.642857)" fill="#484A4B">
                        <g id="Group">
                            <path id="Shape" d="M1.48521951,0.172857143 L1.48521951,1.15578571 C1.48521951,1.21314286 1.48082927,1.26775 1.47160976,1.32314286 L1.47160976,0.339428571 C1.48082927,0.285214286 1.48521951,0.229035714 1.48521951,0.172857143"></path>
                            <path id="Shape" d="M1.47160976,0.339428571 L1.47160976,1.32314286 C1.46239024,1.38757143 1.44570732,1.45121429 1.4237561,1.51132143 L1.4237561,0.528392857 C1.44570732,0.466714286 1.46195122,0.404642857 1.47160976,0.339428571"></path>
                            <path id="Shape" d="M1.42331707,0.528392857 L1.42331707,1.51132143 C1.39741463,1.58360714 1.36404878,1.65235714 1.32365854,1.71678571 L1.32365854,0.735428571 C1.36404878,0.668642857 1.39785366,0.600285714 1.42331707,0.528392857"></path>
                            <path d="M1.32409756,0.735428571 L1.32409756,1.71678571 C1.10019512,2.07978571 0.667317073,2.32610714 0.168146341,2.32610714 L0.168146341,1.34475 C0.667317073,1.34475 1.10019512,1.09685714 1.32409756,0.735428571" id="Shape"></path>
                        </g>
                    </g>
                    <path d="M16.9761951,20.7848929 L16.4120488,21.9689643 L1.14980488,21.9689643 L0.787170732,20.7357857 L16.9761951,20.7848929 Z" id="Shape" fill="#484A4B"></path>
                    <g id="Clipped" transform="translate(0.000000, 19.642857)" fill="#484A4B">
                        <path d="M1.14980488,1.34475 L1.14980488,2.32610714 C0.419268293,2.32610714 -0.168146341,1.79889286 -0.168146341,1.15578571 L-0.168146341,0.172857143 C-0.168146341,0.81675 0.419268293,1.34475 1.14980488,1.34475" id="Shape"></path>
                    </g>
                    <path d="M16.4120488,0.0310357143 C17.1417073,0.0310357143 17.729122,0.554321429 17.729122,1.19664286 L17.729122,19.8157143 C17.729122,20.4596071 17.1417073,20.9872143 16.4120488,20.9872143 L1.14980488,20.9872143 C0.419268293,20.9872143 -0.168146341,20.4592143 -0.168146341,19.8157143 L-0.168146341,1.19664286 C-0.168146341,0.554321429 0.419268293,0.0310357143 1.14980488,0.0310357143 L16.4120488,0.0310357143 Z M14.9746829,8.87739286 L2.58365854,8.87739286 L2.58365854,7.57625 L14.975122,7.57625 L14.975122,8.87739286 L14.9746829,8.87739286 Z M14.9746829,6.67267857 L2.58365854,6.67267857 L2.58365854,5.37075 L14.975122,5.37075 L14.975122,6.67267857 L14.9746829,6.67267857 Z M14.9746829,4.36464286 L2.58365854,4.36464286 L2.58365854,3.06271429 L14.975122,3.06271429 L14.975122,4.36464286 L14.9746829,4.36464286 Z" id="Shape" fill="#78B2F2"></path>
                </g>
            </g>
        </g>
        <g id="Inactive" sketch:type="MSLayerGroup" transform="translate(3.000000, 1.000000)">
            <g id="Group" sketch:type="MSShapeGroup">
                <g>
                    <g id="Clipped" transform="translate(16.243902, 19.642857)" fill="#484A4B">
                        <g id="Group">
                            <path id="Shape" d="M1.48521951,0.172857143 L1.48521951,1.15578571 C1.48521951,1.21314286 1.48082927,1.26775 1.47160976,1.32314286 L1.47160976,0.339428571 C1.48082927,0.285214286 1.48521951,0.229035714 1.48521951,0.172857143"></path>
                            <path id="Shape" d="M1.47160976,0.339428571 L1.47160976,1.32314286 C1.46239024,1.38757143 1.44570732,1.45121429 1.4237561,1.51132143 L1.4237561,0.528392857 C1.44570732,0.466714286 1.46195122,0.404642857 1.47160976,0.339428571"></path>
                            <path id="Shape" d="M1.42331707,0.528392857 L1.42331707,1.51132143 C1.39741463,1.58360714 1.36404878,1.65235714 1.32365854,1.71678571 L1.32365854,0.735428571 C1.36404878,0.668642857 1.39785366,0.600285714 1.42331707,0.528392857"></path>
                            <path d="M1.32409756,0.735428571 L1.32409756,1.71678571 C1.10019512,2.07978571 0.667317073,2.32610714 0.168146341,2.32610714 L0.168146341,1.34475 C0.667317073,1.34475 1.10019512,1.09685714 1.32409756,0.735428571" id="Shape"></path>
                        </g>
                    </g>
                    <path d="M16.9761951,20.7848929 L16.4120488,21.9689643 L1.14980488,21.9689643 L0.787170732,20.7357857 L16.9761951,20.7848929 Z" id="Shape" fill="#484A4B"></path>
                    <g id="Clipped" transform="translate(0.000000, 19.642857)" fill="#484A4B">
                        <path d="M1.14980488,1.34475 L1.14980488,2.32610714 C0.419268293,2.32610714 -0.168146341,1.79889286 -0.168146341,1.15578571 L-0.168146341,0.172857143 C-0.168146341,0.81675 0.419268293,1.34475 1.14980488,1.34475" id="Shape"></path>
                    </g>
                    <path d="M16.4120488,0.0310357143 C17.1417073,0.0310357143 17.729122,0.554321429 17.729122,1.19664286 L17.729122,19.8157143 C17.729122,20.4596071 17.1417073,20.9872143 16.4120488,20.9872143 L1.14980488,20.9872143 C0.419268293,20.9872143 -0.168146341,20.4592143 -0.168146341,19.8157143 L-0.168146341,1.19664286 C-0.168146341,0.554321429 0.419268293,0.0310357143 1.14980488,0.0310357143 L16.4120488,0.0310357143 Z M14.9746829,8.87739286 L2.58365854,8.87739286 L2.58365854,7.57625 L14.975122,7.57625 L14.975122,8.87739286 L14.9746829,8.87739286 Z M14.9746829,6.67267857 L2.58365854,6.67267857 L2.58365854,5.37075 L14.975122,5.37075 L14.975122,6.67267857 L14.9746829,6.67267857 Z M14.9746829,4.36464286 L2.58365854,4.36464286 L2.58365854,3.06271429 L14.975122,3.06271429 L14.975122,4.36464286 L14.9746829,4.36464286 Z" id="Shape" fill="#BBBBBB"></path>
                </g>
            </g>
        </g>
    </g>
</svg>
